<?xml version="1.0" encoding="UTF-8" standalone="no"?>
<!DOCTYPE svg PUBLIC "-//W3C//DTD SVG 1.1//EN" "http://www.w3.org/Graphics/SVG/1.1/DTD/svg11.dtd">
<svg width="100%" height="100%" viewBox="0 0 341 84" version="1.1" xmlns="http://www.w3.org/2000/svg" xmlns:xlink="http://www.w3.org/1999/xlink" xml:space="preserve" xmlns:serif="http://www.serif.com/" style="fill-rule:evenodd;clip-rule:evenodd;stroke-linejoin:round;stroke-miterlimit:2;">
    <g transform="matrix(1,0,0,1,-473.672,-289.474)">
        <g>
            <g opacity="0">
                <path d="M657.543,311.893C657.723,311.152 657.968,310.428 658.275,309.732C658.957,308.183 659.944,306.779 661.161,305.628C662.018,304.818 662.986,304.133 664.029,303.601C664.969,303.121 665.969,302.765 666.996,302.545C667.458,302.446 667.925,302.379 668.395,302.331C668.573,302.316 668.573,302.316 668.75,302.303C669.886,302.24 671.023,302.187 672.159,302.13C674.51,302.012 676.861,301.897 679.212,301.785C685.737,301.474 692.262,301.185 698.789,300.931C704.283,300.717 709.778,300.527 715.274,300.389C719.629,300.279 723.985,300.195 728.341,300.206C731.708,300.215 735.076,300.28 738.442,300.369C741.954,300.461 745.465,300.579 748.976,300.716C758.298,301.081 767.616,301.549 776.931,302.065C778.453,302.151 779.975,302.232 781.497,302.325C781.966,302.36 782.433,302.412 782.897,302.491C783.971,302.673 785.024,302.981 786.03,303.41C787.835,304.178 789.481,305.331 790.841,306.774C792.278,308.3 793.391,310.143 794.076,312.148C794.419,313.149 794.655,314.187 794.78,315.24C794.84,315.747 794.872,316.257 794.884,316.768C796.333,318.086 798.131,318.658 800.302,318.445C800.804,318.402 801.314,318.409 801.816,318.409C804.149,318.409 806.646,318.11 806.813,321.896C807.016,326.54 805.83,328.246 802.104,328.627C802.005,328.635 801.905,328.649 801.805,328.656C798.001,329.002 796.036,329.181 794.895,330.235C794.891,332.063 794.889,333.892 794.889,335.721C794.889,341.919 794.923,348.117 794.888,354.315C794.879,354.826 794.851,355.335 794.794,355.843C794.677,356.89 794.451,357.923 794.119,358.92C793.522,360.716 792.585,362.388 791.376,363.821C790.167,365.254 788.69,366.443 787.047,367.303C786.183,367.755 785.274,368.115 784.339,368.378C783.861,368.513 783.377,368.618 782.889,368.704C782.723,368.731 782.724,368.731 782.558,368.756C780.369,369.056 778.178,369.346 775.986,369.619C770.13,370.347 764.262,370.973 758.384,371.475C752.248,371.998 746.101,372.389 739.947,372.593C737.939,372.66 735.93,372.703 733.92,372.729C733.617,372.729 733.314,372.728 733.01,372.727C724.849,372.682 716.695,372.215 708.562,371.545C699.079,370.764 689.62,369.693 680.186,368.44C679.738,368.379 679.29,368.322 678.843,368.258C678.437,368.195 678.034,368.119 677.635,368.023C676.805,367.824 675.992,367.549 675.21,367.201C673.832,366.589 672.55,365.752 671.424,364.732C670.265,363.681 669.273,362.438 668.498,361.064C668.048,360.266 667.671,359.424 667.374,358.553C667.223,358.111 667.095,357.661 666.983,357.207C663.929,344.536 660.88,331.864 657.832,319.192L656.433,318.954C655.439,318.806 654.447,318.65 653.452,318.511C652.527,318.381 651.132,318.227 650.203,318.149C649.229,318.068 648.036,317.995 647.055,318C645.859,318.007 644.689,318.099 643.498,318.211C641.958,318.357 641.066,318.482 639.536,318.676L636.318,319.14L635.22,319.315C632.092,331.946 628.964,344.577 625.83,357.207C625.715,357.661 625.583,358.111 625.428,358.553C625.122,359.424 624.734,360.266 624.27,361.064C623.473,362.438 622.451,363.681 621.258,364.732C620.099,365.752 618.779,366.589 617.361,367.201C616.555,367.549 615.719,367.824 614.865,368.023C614.453,368.119 614.038,368.195 613.621,368.258C613.16,368.322 612.699,368.379 612.238,368.44C602.526,369.693 592.789,370.764 583.027,371.545C574.654,372.215 566.259,372.682 557.858,372.727C557.546,372.728 557.233,372.729 556.921,372.729C554.852,372.703 552.784,372.66 550.717,372.593C544.382,372.389 538.053,371.998 531.737,371.475C525.686,370.973 519.645,370.347 513.616,369.619C511.359,369.346 509.104,369.056 506.851,368.756C506.68,368.731 506.68,368.731 506.51,368.704C506.007,368.618 505.509,368.513 505.017,368.378C504.054,368.115 503.119,367.755 502.23,367.303C500.538,366.443 499.017,365.254 497.773,363.821C496.528,362.388 495.564,360.716 494.949,358.92C494.608,357.923 494.375,356.89 494.254,355.843C494.195,355.335 494.166,354.826 494.158,354.315C494.122,348.117 494.157,341.919 494.157,335.721C494.157,334.322 494.155,332.922 494.153,331.523C493.203,329.277 491.38,329.111 486.378,328.656C486.278,328.649 486.179,328.635 486.079,328.627C482.353,328.246 481.167,326.54 481.37,321.896C481.538,318.11 484.034,318.409 486.367,318.409C486.87,318.409 487.379,318.402 487.881,318.445C490.534,318.706 492.631,317.794 494.213,315.779C494.228,315.599 494.247,315.419 494.269,315.24C494.398,314.187 494.641,313.149 494.993,312.148C495.699,310.143 496.844,308.3 498.324,306.774C499.724,305.331 501.418,304.178 503.276,303.41C504.312,302.981 505.396,302.673 506.502,302.491C506.98,302.412 507.46,302.36 507.943,302.325C509.51,302.232 511.077,302.151 512.644,302.065C522.233,301.549 531.825,301.081 541.422,300.716C545.036,300.579 548.651,300.461 552.267,300.369C555.732,300.28 559.198,300.215 562.664,300.206C567.149,300.195 571.634,300.279 576.117,300.389C581.775,300.527 587.432,300.717 593.088,300.931C599.806,301.185 606.524,301.474 613.24,301.785C615.661,301.897 618.081,302.012 620.501,302.13C621.671,302.187 622.841,302.24 624.011,302.303C624.194,302.316 624.193,302.316 624.376,302.331C624.86,302.379 625.34,302.446 625.817,302.545C626.874,302.765 627.903,303.121 628.871,303.601C629.945,304.133 630.941,304.818 631.823,305.628C633.076,306.779 634.092,308.183 634.795,309.732C635.093,310.389 635.334,311.072 635.517,311.77C635.784,311.813 636.051,311.856 636.318,311.896C638.17,312.171 639.687,312.396 641.496,312.608C642.162,312.687 642.83,312.762 643.498,312.825C644.689,312.938 645.859,313.029 647.055,313.036C648.037,313.041 649.228,312.968 650.203,312.887C651.133,312.809 652.526,312.655 653.452,312.526C654.447,312.386 655.439,312.23 656.433,312.082L657.543,311.893ZM629.337,335.096C630.732,329.465 632.126,323.834 633.52,318.203C633.55,318.086 633.589,317.969 633.622,317.852C633.662,317.702 633.662,317.703 633.701,317.552C633.784,317.201 633.855,316.848 633.906,316.49C634.034,315.582 634.047,314.658 633.942,313.746C633.82,312.685 633.539,311.643 633.112,310.664C632.534,309.34 631.688,308.136 630.639,307.144C629.752,306.305 628.722,305.619 627.606,305.124C626.813,304.772 625.978,304.516 625.124,304.364C624.716,304.291 624.306,304.245 623.893,304.217C623.295,304.184 622.698,304.157 622.1,304.127C620.357,304.042 618.613,303.958 616.87,303.874C606.199,303.37 595.526,302.91 584.849,302.558C581,302.431 577.151,302.323 573.3,302.242C569.757,302.167 566.213,302.114 562.669,302.123C558.637,302.133 554.604,302.219 550.573,302.331C545.675,302.468 540.777,302.65 535.881,302.855C529.812,303.11 523.746,303.402 517.68,303.717C515.517,303.83 513.354,303.945 511.191,304.064C510.15,304.121 509.109,304.176 508.069,304.238C507.91,304.249 507.91,304.249 507.751,304.263C507.334,304.303 506.918,304.358 506.506,304.436C505.601,304.608 504.716,304.878 503.869,305.24C502.215,305.947 500.717,307.006 499.494,308.325C498.305,309.609 497.382,311.134 496.801,312.785C496.495,313.655 496.283,314.557 496.171,315.473C496.114,315.943 496.085,316.416 496.076,316.89C496.038,323.167 496.074,329.444 496.074,335.721C496.073,341.912 496.038,348.102 496.074,354.293C496.082,354.738 496.107,355.181 496.158,355.624C496.263,356.534 496.466,357.433 496.762,358.3C497.206,359.596 497.859,360.818 498.687,361.908C499.54,363.032 500.579,364.013 501.749,364.801C502.781,365.496 503.913,366.038 505.101,366.406C505.617,366.566 506.143,366.694 506.675,366.788C507.195,366.88 507.723,366.939 508.246,367.008C509.462,367.169 510.678,367.325 511.895,367.476C515.39,367.912 518.89,368.313 522.394,368.676C525.285,368.976 528.178,369.25 531.074,369.496C534.728,369.805 538.385,370.07 542.045,370.282C544.955,370.45 547.866,370.584 550.778,370.677C552.245,370.725 553.711,370.759 555.178,370.787C555.763,370.797 556.348,370.805 556.932,370.812C561.7,370.807 566.465,370.657 571.226,370.41C575.112,370.209 578.995,369.945 582.874,369.634C593.018,368.823 603.135,367.7 613.224,366.378C613.346,366.361 613.468,366.342 613.59,366.323C614.665,366.142 615.713,365.835 616.71,365.394C617.903,364.866 619.013,364.154 619.992,363.293C621,362.405 621.867,361.36 622.552,360.205C622.982,359.48 623.34,358.713 623.619,357.918C623.741,357.571 623.846,357.219 623.94,356.863C624.423,354.953 624.89,353.038 625.364,351.126C625.879,349.051 626.393,346.975 626.907,344.9C627.338,343.164 627.768,341.427 628.198,339.69L626.746,340.675C626.402,341.943 626.015,343.214 625.607,344.49C625.433,345.096 625.244,345.698 625.017,346.303C624.69,347.179 623.334,346.824 623.532,345.863C624.682,340.089 626.443,334.537 626.964,328.622C627.028,327.827 628.191,327.819 628.24,328.622C628.357,330.863 628.223,333.015 627.917,335.123L629.337,335.096ZM664.656,339.583C665.083,341.355 665.51,343.128 665.936,344.9C666.436,346.975 666.936,349.051 667.436,351.126C667.897,353.038 668.35,354.953 668.819,356.863C668.91,357.219 669.012,357.571 669.13,357.918C669.402,358.713 669.749,359.48 670.167,360.205C670.832,361.36 671.675,362.405 672.654,363.293C673.605,364.154 674.684,364.866 675.842,365.394C676.81,365.835 677.829,366.142 678.872,366.323C678.991,366.342 679.109,366.361 679.228,366.378C689.029,367.7 698.856,368.823 708.71,369.634C712.478,369.945 716.25,370.209 720.024,370.41C724.649,370.657 729.278,370.807 733.909,370.812C734.477,370.805 735.045,370.797 735.613,370.787C737.038,370.759 738.463,370.725 739.887,370.677C742.717,370.584 745.544,370.45 748.37,370.282C751.926,370.07 755.479,369.805 759.027,369.496C761.841,369.25 764.652,368.976 767.46,368.676C770.863,368.313 774.263,367.912 777.658,367.476C778.84,367.325 780.022,367.169 781.202,367.008C781.71,366.939 782.223,366.88 782.729,366.788C783.246,366.694 783.757,366.566 784.258,366.406C785.412,366.038 786.511,365.496 787.513,364.801C788.65,364.013 789.659,363.032 790.488,361.908C791.293,360.818 791.927,359.596 792.358,358.3C792.646,357.433 792.843,356.534 792.945,355.624C792.994,355.181 793.019,354.738 793.026,354.293C793.061,348.102 793.027,341.912 793.027,335.721C793.027,329.444 793.061,323.167 793.024,316.89C793.016,316.416 792.988,315.943 792.932,315.473C792.823,314.557 792.618,313.655 792.32,312.785C791.756,311.134 790.859,309.609 789.704,308.325C788.516,307.006 787.061,305.947 785.454,305.24C784.632,304.878 783.772,304.608 782.893,304.436C782.492,304.358 782.089,304.303 781.683,304.263C781.529,304.249 781.529,304.249 781.375,304.238C780.364,304.176 779.353,304.121 778.342,304.064C776.241,303.945 774.14,303.83 772.038,303.717C766.146,303.402 760.253,303.11 754.358,302.855C749.602,302.65 744.845,302.468 740.086,302.331C736.171,302.219 732.254,302.133 728.337,302.123C724.894,302.114 721.451,302.167 718.01,302.242C714.27,302.323 710.53,302.431 706.791,302.558C696.42,302.91 686.052,303.37 675.687,303.874C673.993,303.958 672.3,304.042 670.606,304.127C670.026,304.157 669.445,304.184 668.865,304.217C668.464,304.245 668.065,304.291 667.669,304.364C666.839,304.516 666.028,304.772 665.258,305.124C664.174,305.619 663.173,306.305 662.312,307.144C661.293,308.136 660.471,309.34 659.91,310.664C659.494,311.643 659.222,312.685 659.103,313.746C659.001,314.658 659.013,315.582 659.138,316.49C659.187,316.848 659.256,317.201 659.338,317.552C659.375,317.703 659.375,317.702 659.414,317.852C659.446,317.969 659.484,318.086 659.513,318.203C660.867,323.834 662.221,329.464 663.576,335.094L665.097,335.123C664.79,333.015 664.657,330.863 664.774,328.622C664.823,327.819 665.986,327.827 666.05,328.622C666.571,334.537 668.331,340.089 669.482,345.863C669.68,346.824 668.323,347.179 667.996,346.303C667.77,345.698 667.58,345.096 667.407,344.49C666.999,343.214 666.611,341.943 666.268,340.675L664.656,339.583ZM474.414,327.099C473.513,325.233 473.424,322.241 474.19,320.293C474.649,319.125 477.363,319.022 479.34,318.348L479.34,321.971C477.794,322.451 476.48,322.861 474.76,323.402C476.58,325.351 480.345,323.278 479.561,328.488C477.712,328.05 474.959,328.225 474.414,327.099ZM813.769,327.099C814.67,325.233 814.759,322.241 813.993,320.293C813.534,319.125 810.82,319.022 808.843,318.348L808.843,321.971C810.389,322.451 811.703,322.861 813.423,323.402C811.603,325.351 807.839,323.278 808.622,328.488C810.471,328.05 813.224,328.225 813.769,327.099Z" style="fill:rgb(246,248,247);fill-rule:nonzero;"/>
            </g>
            <g transform="matrix(1,0,0,1,-173.534,0)">
                <path d="M782.818,301.041L771.606,292.587C771.606,292.587 715.346,290.195 701.453,289.604C699.514,289.522 697.646,290.339 696.39,291.819C690.146,299.175 671.356,321.309 671.356,321.309L693.992,311.066L782.818,310.626L782.818,301.041Z" style="fill:rgb(96,96,96);"/>
            </g>
            <g transform="matrix(-1,0,0,1,1463.54,0)">
                <path d="M782.818,301.041L771.606,292.587C771.606,292.587 715.346,290.195 701.453,289.604C699.514,289.522 697.646,290.339 696.39,291.819C690.146,299.175 671.356,321.309 671.356,321.309L693.992,311.066L782.818,310.626L782.818,301.041Z" style="fill:rgb(96,96,96);"/>
            </g>
        </g>
    </g>
</svg>
